<svg version="1.1" id="Layer_1" xmlns="http://www.w3.org/2000/svg" xmlns:xlink="http://www.w3.org/1999/xlink" x="0px" y="0px"
	 viewBox="0 0 768 642" style="enable-background:new 0 0 768 642;" preserveAspectRatio = "xMidYMid">


<defs>
	<style type="text/css">

		.st0{
			fill:none;
			stroke:#fff;
		stroke-width:2;
		stroke-miterlimit:10;}

		.st0 {
		stroke-dasharray: 3750;
		stroke-dashoffset: 0;	
		-webkit-animation: dash 2s linear forwards;
		-o-webkit-animation: dash 2s linear forwards;
		-moz-webkit-animation: dash 2s linear forwards;
		animation: dash 2s linear forwards;
		}

		@-webkit-keyframes dash {
			from {
				stroke-dashoffset: 3750;
			}
			to {
				stroke-dashoffset: 0;
			}
		}


	</style>
</defs>


<path class="st0" d="M753.5,20c-4.908,0.975-56,13-46,76v-2c1.177,14.875,17,73-1,117c-10.909,26.665-25.791,37.383-34,42
	c-28.176,15.847-59.002,11.302-78,10c-41.597-2.851-45.828-10.379-91-15c-30.524-3.123-57.391,0.824-70,3
	c-36.643,6.323-58.9,15.062-93,31c-37.953,17.739-44.282,25.476-68,30c-13.989,2.668-44.523,4.024-70-7
	c-15.317-6.628-24.372-13.957-38-28c-30.551-31.479-36.747-43.497-43-51c-10-12-9-6-13,12c0,0,0.512-1.023-0.666,3.537h-0.5
	c3.112,3.535,6.644,7.648,10.666,12.463c10.848,12.989,3.28,3.376,10,13c3.841,5.5,6,7-13,7c-13.342,0-15,2-14-4l4-20
	c1.135-3.973,1.867-6.656,2.334-8.463C91.809,223.902,87,221,87,221c-3.777,2.281-3,40-6,52h-2c13-7-37,25-34,34
	c2.344,7.033,1.788,9.964-1,14c-2.897,4.193-13.344,12.361-19,17c-1.128,0.925-3.763,0.473-1,6c6,12,18.632,15.049,21,16
	c9.334,3.746,17.239,3.159,19,3c8.047-0.725,10.182-3.518,18-6c17.146-5.443,33.063-0.323,37,1c2.881,0.968,12.486,4.438,22,13
	c9.158,8.242,13.544,16.984,16,22c1.883,3.845,5.03,9.432,6,17c1.648,12.853,0.196,19.814-3,30c-7.093,22.606-14.3,39.538-15,41
	c-5.631,11.764-8.571,16.254-30,52l-3.861,6.534C102.865,553.505,83.127,585.5,68,594c-0.726,0.408-13,9-13,9
	c-17.225,9.262-19.031,13.381-18,14c5,3,6.621,7.881,29,3c4.699-1.025,14.377-5.12,30-14c15.589-8.861,19.161-10.984,39-28
	c22.893-19.635,22.243-19.003,44-38c20.633-18.015,31.806-32.243,38-39c2.815-3.071,7.404-7.526,12.668-13.081
	c15.163-16.003,35.938-41.192,36.309-69.164C265.98,418.503,266,418.253,266,418v1c-0.008-0.077-0.016-0.163-0.023-0.245
	c-0.994-10.467-2.271-55.268-39.977,7.245c-8.081,15.274-9.883,28.128-10,32c-0.464,15.406,5.305,23.572,13.668,29.919
	C240.706,496.297,256.267,501.505,268,516c4.701,5.808,9,12,9,12c1.729,2.491,7.127,10.267,10,16c6.615,13.203,5.5,26.875,5,33
	c-2.222,27.231-17.99,40.026-14,44c4.27,4.253,25.848-6.901,39-24c3.099-4.029,6.465-11.494,9-24c1.999-9.864,2.837-14.468,0-38
	c-2.432-20.169-3.594-30.409-1-38c4.486-13.125,14.656-20.601,22-26c11.322-8.323,12.412-9.743,49-24
	c12.836-5.002,25.237-5.327,42-8c4.435-0.707,8.474-1.117,10.415-1.295c-0.134-10.734,2.538-19.052,3.585-22.705
	c8.097-28.253,26.647-44.762,35-52c22.371-19.387,45.482-25.009,66-30c35.358-8.601,75.824-8.893,77-3
	c0.193,0.967-0.714,1.89-1.008,2.198C620.014,341.635,606.052,366.783,612,397c1.159,5.887,19.54,52.596,52,77
	c14.652,11.016,23.851,15.628,36,32c2.104,2.836,13.708,14.834,18,33c1.957,8.283,1.371,18.501-1,30
	c-5.75,27.886-31.389,36.665-32,36c-0.401-0.436-0.284-2.998,5-19c2.402-7.274,2.022-15.149,2-17c-0.184-15.722-6.06-22.093-10-27
	c-10.088-12.565-16.284-15.427-32-28c-20-16-20.129-16.187-45-32c-14.699-9.346-35.303-22.26-65-32c0,0-26.937-8.835-61-12
	c-15.562-1.446-26.351-0.651-29.517-0.389c-0.189,0.016-0.561,0.047-1.068,0.093c0.131,10.487,2.942,23.28,12.585,36.295
	c7.474,10.087,24.457,23.799,42,33c32.677,17.139,39.093,16.234,44,29c4.569,11.888-5.111,26.258-11,35
	c-8.279,12.29-18.276,18.762-31,27c-12.158,7.872-23.58,13.266-33,17"/>
</svg>
